<svg width="318" height="56" viewBox="0 0 318 56" fill="none" xmlns="http://www.w3.org/2000/svg">
<path d="M57.2196 49.9245C56.9032 49.9245 56.5868 49.8188 56.3758 49.6075L35.8087 32.015C35.2286 31.5395 35.1758 30.6943 35.6504 30.166C36.1251 29.5848 36.9688 29.532 37.4962 30.0075L58.0634 47.5999C58.6435 48.0754 58.6962 48.9207 58.2216 49.449C57.9579 49.766 57.5888 49.9245 57.2196 49.9245Z" fill="url(#paint0_linear)"/>
<path d="M65.7098 45.4332C65.2879 45.4332 64.866 45.2219 64.6023 44.8521L46.9884 18.7012C46.5665 18.12 46.7247 17.2747 47.3576 16.8521C47.9377 16.4295 48.7814 16.5879 49.2033 17.2219L66.8173 43.3728C67.2392 43.954 67.081 44.7992 66.4481 45.2219C66.2372 45.3275 65.9735 45.4332 65.7098 45.4332Z" fill="url(#paint1_linear)"/>
<path d="M71.9326 38.8826C71.4053 38.8826 70.8779 38.5657 70.7197 38.0374L60.2779 10.3543C60.0142 9.66754 60.3834 8.92794 61.0689 8.66379C61.7545 8.39964 62.4928 8.76945 62.7565 9.45624L73.1983 37.1392C73.462 37.826 73.0928 38.5657 72.4073 38.8298C72.249 38.8826 72.0909 38.8826 71.9326 38.8826Z" fill="url(#paint2_linear)"/>
<path d="M16.5599 51.2444C21.9481 51.2444 26.3161 46.8686 26.3161 41.4708C26.3161 36.073 21.9481 31.6973 16.5599 31.6973C11.1717 31.6973 6.80371 36.073 6.80371 41.4708C6.80371 46.8686 11.1717 51.2444 16.5599 51.2444Z" fill="#1C2B74"/>
<path d="M102.678 1.05597C102.414 0.369174 101.623 0.0521801 100.99 0.316331C89.6518 4.8069 84.0617 14.739 78.6299 24.3541C75.0965 30.6409 71.4577 37.0862 66.2896 41.8937C56.1115 51.2975 41.2398 49.6069 27.2647 45.1692C26.9483 46.0145 26.5791 46.8069 26.1045 47.5993C33.0129 49.8182 40.1851 51.456 47.0408 51.456C54.7931 51.456 62.0706 49.3956 68.0826 43.9012C73.5672 38.8295 77.3115 32.173 80.9503 25.7277C86.3821 16.1126 91.4975 7.02579 101.992 2.85221C102.625 2.48239 102.941 1.74276 102.678 1.05597Z" fill="url(#paint3_linear)"/>
<path d="M5.43279 39.3048C5.591 38.4067 5.85468 37.5614 6.22383 36.769C4.85269 36.135 3.48156 35.5539 2.21589 35.0256C1.53031 34.7614 0.792013 35.0256 0.475595 35.7124C0.211913 36.3992 0.475588 37.1388 1.16116 37.4558C2.47957 38.0369 3.85071 38.618 5.27459 39.252C5.32732 39.252 5.38005 39.3048 5.43279 39.3048Z" fill="#1C2B74"/>
<path d="M30.7454 33.4934C35.2307 33.4934 38.8668 29.8509 38.8668 25.3575C38.8668 20.8642 35.2307 17.2217 30.7454 17.2217C26.2601 17.2217 22.624 20.8642 22.624 25.3575C22.624 29.8509 26.2601 33.4934 30.7454 33.4934Z" fill="#1C2B74"/>
<path d="M44.7209 18.9652C48.1868 18.9652 50.9965 16.1505 50.9965 12.6784C50.9965 9.20631 48.1868 6.3916 44.7209 6.3916C41.255 6.3916 38.4453 9.20631 38.4453 12.6784C38.4453 16.1505 41.255 18.9652 44.7209 18.9652Z" fill="#1C2B74"/>
<path d="M59.9621 10.1433C62.2921 10.1433 64.181 8.25103 64.181 5.91685C64.181 3.58266 62.2921 1.69043 59.9621 1.69043C57.632 1.69043 55.7432 3.58266 55.7432 5.91685C55.7432 8.25103 57.632 10.1433 59.9621 10.1433Z" fill="url(#paint4_linear)"/>
<path d="M72.8292 9.66679C74.4311 9.66679 75.7297 8.36588 75.7297 6.76113C75.7297 5.15638 74.4311 3.85547 72.8292 3.85547C71.2273 3.85547 69.9287 5.15638 69.9287 6.76113C69.9287 8.36588 71.2273 9.66679 72.8292 9.66679Z" fill="#335BA3"/>
<path d="M80.1593 14.528C81.1495 14.528 81.9523 13.7238 81.9523 12.7318C81.9523 11.7397 81.1495 10.9355 80.1593 10.9355C79.169 10.9355 78.3662 11.7397 78.3662 12.7318C78.3662 13.7238 79.169 14.528 80.1593 14.528Z" fill="#4472C4"/>
<path d="M88.0176 24.3538C89.0953 24.3538 89.9689 23.4786 89.9689 22.3991C89.9689 21.3195 89.0953 20.4443 88.0176 20.4443C86.94 20.4443 86.0664 21.3195 86.0664 22.3991C86.0664 23.4786 86.94 24.3538 88.0176 24.3538Z" fill="#4472C4"/>
<path d="M95.6642 28.5803C97.1787 28.5803 98.4064 27.3503 98.4064 25.8331C98.4064 24.3159 97.1787 23.0859 95.6642 23.0859C94.1496 23.0859 92.9219 24.3159 92.9219 25.8331C92.9219 27.3503 94.1496 28.5803 95.6642 28.5803Z" fill="url(#paint5_linear)"/>
<path d="M107.635 28.8444C109.965 28.8444 111.854 26.9522 111.854 24.618C111.854 22.2838 109.965 20.3916 107.635 20.3916C105.305 20.3916 103.416 22.2838 103.416 24.618C103.416 26.9522 105.305 28.8444 107.635 28.8444Z" fill="#5B9BD5"/>
<path d="M119.343 20.7084C122.518 20.7084 125.091 18.1302 125.091 14.9499C125.091 11.7696 122.518 9.19141 119.343 9.19141C116.168 9.19141 113.595 11.7696 113.595 14.9499C113.595 18.1302 116.168 20.7084 119.343 20.7084Z" fill="#4FCCDD"/>
<path d="M92.1303 38.8302C91.9721 38.6718 91.7611 38.5133 91.4975 38.3019C91.2338 38.0906 90.8646 37.8793 90.4955 37.668C90.1263 37.4567 89.6517 37.2453 89.177 37.1397C88.7024 36.9812 88.1751 36.9284 87.595 36.9284C86.8039 36.9284 86.0656 37.0869 85.4328 37.4567C84.7472 37.8265 84.1671 38.3019 83.6925 38.8831C83.2179 39.4642 82.796 40.151 82.5323 40.8906C82.2686 41.6831 82.1104 42.4755 82.1104 43.268C82.1104 44.1661 82.2686 44.9585 82.5323 45.751C82.8487 46.5434 83.2179 47.1774 83.6925 47.7586C84.1671 48.3397 84.7472 48.8152 85.4328 49.1321C86.1184 49.4491 86.8039 49.6076 87.595 49.6076C87.7004 49.6076 87.9114 49.6076 88.1751 49.5548C88.4388 49.5548 88.8079 49.4491 89.177 49.3435C89.5989 49.2378 90.0208 49.0793 90.4955 48.8152C90.9701 48.6038 91.5502 48.234 92.0775 47.8114V49.7133C91.9193 49.8189 91.6557 49.9246 91.3393 50.0831C91.0228 50.2416 90.6537 50.4 90.2318 50.5585C89.8099 50.717 89.388 50.8227 88.8606 50.9284C88.386 51.034 87.8586 51.0868 87.3313 51.0868C86.4875 51.0868 85.6437 50.9283 84.7999 50.5585C83.9562 50.1887 83.2178 49.6604 82.585 48.9736C81.9522 48.2868 81.3721 47.4944 81.0029 46.5434C80.581 45.5925 80.3701 44.5359 80.3701 43.3736C80.3701 42.317 80.5283 41.2604 80.8975 40.3095C81.2666 39.3585 81.7413 38.5133 82.3741 37.8265C83.0069 37.0868 83.7452 36.5586 84.6417 36.1359C85.5383 35.7133 86.4875 35.502 87.4895 35.502C88.2806 35.502 89.0716 35.6076 89.8099 35.8718C90.5482 36.1359 91.2865 36.4529 91.9721 36.9284V38.8302H92.1303Z" fill="#5B9BD5"/>
<path d="M95.6114 40.4679V47.0188C95.6114 47.3358 95.6641 47.6528 95.7169 47.9698C95.7696 48.2868 95.8751 48.6037 96.086 48.8679C96.2442 49.132 96.5079 49.3433 96.7716 49.5018C97.0353 49.6603 97.4044 49.766 97.879 49.766C98.3537 49.766 98.8283 49.6603 99.1974 49.449C99.6193 49.2377 99.9358 48.9207 100.199 48.5509C100.463 48.1811 100.674 47.7584 100.832 47.283C100.99 46.8075 101.043 46.332 101.043 45.8566V40.4679H102.414V50.7697H101.201L101.096 49.0264H101.043C100.885 49.2377 100.727 49.5018 100.516 49.7131C100.358 49.9245 100.094 50.1887 99.8303 50.3471C99.5666 50.5585 99.2502 50.7169 98.9338 50.8226C98.5646 50.9282 98.1955 51.0339 97.6681 51.0339C97.0353 51.0339 96.5079 50.9283 96.086 50.7169C95.6641 50.5056 95.295 50.2415 94.9785 49.8717C94.7149 49.5018 94.5039 49.132 94.3457 48.6565C94.1875 48.1811 94.1348 47.7056 94.1348 47.1773V40.415H95.6114V40.4679Z" fill="#5B9BD5"/>
<path d="M110.641 41.8414C110.483 41.7886 110.272 41.7358 110.166 41.683C110.008 41.6301 109.85 41.6302 109.639 41.6302C109.111 41.6302 108.69 41.7358 108.268 41.9999C107.899 42.2641 107.529 42.5811 107.318 42.9509C107.055 43.3736 106.897 43.7962 106.738 44.2717C106.633 44.7471 106.527 45.2754 106.527 45.7509V50.7697H105.156V40.4679H106.422L106.527 42.2641H106.58C106.633 42.1056 106.738 41.9471 106.897 41.7358C107.055 41.5245 107.213 41.3132 107.424 41.1019C107.635 40.8905 107.951 40.732 108.268 40.6264C108.584 40.4679 109.006 40.415 109.481 40.415C109.797 40.415 110.008 40.415 110.219 40.4679C110.43 40.5207 110.588 40.5207 110.641 40.5207V41.8414Z" fill="#5B9BD5"/>
<path d="M112.434 45.2229C112.486 46.3323 112.697 47.1776 113.014 47.8115C113.383 48.4455 113.752 48.8681 114.174 49.1851C114.596 49.5021 115.018 49.6606 115.387 49.7134C115.756 49.7663 116.02 49.8191 116.178 49.8191C116.653 49.8191 117.127 49.7663 117.496 49.6078C117.918 49.4493 118.287 49.238 118.604 49.0267C118.92 48.8153 119.237 48.5512 119.5 48.3398C119.764 48.1285 119.975 47.9172 120.08 47.7587V49.4493C119.869 49.6078 119.659 49.7663 119.395 49.9776C119.131 50.1889 118.815 50.3474 118.498 50.5059C118.182 50.6644 117.76 50.8229 117.391 50.9285C116.969 51.0342 116.547 51.087 116.072 51.087C115.387 51.087 114.754 50.9814 114.174 50.7172C113.541 50.4531 113.014 50.0832 112.539 49.6606C112.064 49.1851 111.695 48.604 111.379 47.9701C111.062 47.3361 110.957 46.5436 110.957 45.7512C110.957 44.9587 111.062 44.2719 111.326 43.5851C111.59 42.9512 111.959 42.37 112.381 41.8417C112.803 41.3134 113.383 40.9965 113.963 40.6795C114.543 40.4153 115.229 40.2568 115.914 40.2568C116.336 40.2568 116.758 40.3097 117.127 40.4153C117.496 40.521 117.813 40.6795 118.076 40.838C118.34 40.9965 118.604 41.2078 118.815 41.4719C119.026 41.6832 119.237 41.9474 119.395 42.1587C119.764 42.7399 120.028 43.321 120.08 43.7965C120.186 44.3248 120.186 44.8002 120.239 45.2229H112.434ZM118.657 44.0606C118.551 43.4267 118.34 42.8983 118.076 42.5285C117.813 42.1587 117.496 41.8946 117.18 41.7361C116.863 41.5776 116.6 41.4719 116.336 41.4719C116.072 41.4191 115.914 41.4191 115.861 41.4191C115.018 41.4191 114.385 41.6833 113.858 42.1587C113.33 42.687 112.961 43.2682 112.697 44.0078H118.657V44.0606Z" fill="#5B9BD5"/>
<path d="M121.663 48.2342C122.138 48.604 122.56 48.921 122.981 49.1323C123.403 49.3436 123.773 49.5021 124.089 49.6078C124.405 49.7134 124.722 49.7662 124.933 49.7662C125.144 49.7662 125.355 49.8191 125.513 49.8191C125.935 49.8191 126.251 49.7663 126.62 49.6606C126.937 49.5549 127.253 49.3964 127.464 49.2379C127.728 49.0794 127.886 48.8681 128.044 48.6568C128.202 48.4455 128.255 48.1814 128.255 47.9701C128.255 47.8116 128.255 47.7059 128.202 47.6002C128.15 47.4946 128.097 47.3361 127.991 47.1776C127.833 47.0191 127.517 46.8078 127.095 46.6493C126.673 46.4908 126.146 46.3323 125.566 46.2266C125.196 46.1738 124.775 46.0682 124.3 45.9097C123.878 45.7512 123.456 45.5927 123.034 45.3814C122.665 45.1701 122.349 44.8531 122.085 44.5361C121.821 44.1663 121.716 43.7436 121.716 43.2682C121.716 42.8455 121.821 42.4229 122.032 42.053C122.243 41.6832 122.507 41.3663 122.876 41.1021C123.245 40.838 123.667 40.6266 124.142 40.4681C124.616 40.3096 125.144 40.2568 125.724 40.2568C125.829 40.2568 125.987 40.2568 126.251 40.2568C126.515 40.2568 126.779 40.3097 127.095 40.3625C127.411 40.4153 127.781 40.521 128.15 40.6795C128.519 40.838 128.888 40.9964 129.257 41.2606V42.9512C128.73 42.5286 128.202 42.1587 127.57 41.8946C126.989 41.6304 126.304 41.4719 125.671 41.4719C125.355 41.4719 125.038 41.5247 124.775 41.5776C124.511 41.6304 124.247 41.7361 124.036 41.8946C123.825 42.0531 123.614 42.2116 123.509 42.4229C123.351 42.6342 123.298 42.8455 123.298 43.0568C123.298 43.2153 123.298 43.321 123.351 43.4266C123.403 43.5323 123.456 43.6908 123.562 43.7965C123.72 44.0078 124.036 44.2191 124.564 44.3776C125.038 44.5889 125.618 44.7474 126.251 44.8531C126.726 44.9587 127.148 45.0644 127.622 45.2229C128.097 45.3813 128.466 45.5398 128.835 45.7512C129.204 45.9625 129.468 46.2266 129.679 46.5436C129.89 46.8606 129.995 47.2304 129.995 47.7059C129.995 48.1286 129.89 48.5512 129.679 48.921C129.468 49.2908 129.204 49.6606 128.835 49.9776C128.466 50.2946 127.991 50.5059 127.464 50.7172C126.937 50.8757 126.357 50.9814 125.724 50.9814C125.566 50.9814 125.302 50.9814 125.038 50.9285C124.775 50.9285 124.458 50.8757 124.142 50.77C123.825 50.7172 123.456 50.6115 123.034 50.4531C122.612 50.2946 122.243 50.0833 121.769 49.8191V48.2342H121.663Z" fill="#5B9BD5"/>
<path d="M149.138 38.8302C148.98 38.6718 148.769 38.5133 148.505 38.3019C148.242 38.0906 147.872 37.8793 147.503 37.668C147.134 37.4567 146.66 37.2453 146.185 37.1397C145.71 36.9812 145.183 36.9284 144.603 36.9284C143.812 36.9284 143.073 37.0869 142.441 37.4567C141.755 37.8265 141.175 38.3019 140.7 38.8831C140.226 39.4642 139.804 40.151 139.54 40.8906C139.276 41.6831 139.118 42.4755 139.118 43.268C139.118 44.1661 139.276 44.9585 139.54 45.751C139.857 46.5434 140.226 47.1774 140.7 47.7586C141.175 48.3397 141.755 48.8152 142.441 49.1321C143.126 49.4491 143.812 49.6076 144.603 49.6076C144.708 49.6076 144.919 49.6076 145.183 49.5548C145.447 49.5548 145.816 49.4491 146.185 49.3435C146.607 49.2378 147.029 49.0793 147.503 48.8152C147.978 48.6038 148.558 48.234 149.085 47.8114V49.7133C148.927 49.8189 148.663 49.9246 148.347 50.0831C148.031 50.2416 147.662 50.4 147.24 50.5585C146.818 50.717 146.396 50.8227 145.868 50.9284C145.394 51.034 144.866 51.0868 144.339 51.0868C143.495 51.0868 142.652 50.9283 141.808 50.5585C140.964 50.1887 140.226 49.6604 139.593 48.9736C138.96 48.2868 138.38 47.4944 138.011 46.5434C137.589 45.5925 137.378 44.5359 137.378 43.3736C137.378 42.317 137.536 41.2604 137.905 40.3095C138.274 39.3585 138.749 38.5133 139.382 37.8265C140.015 37.0868 140.753 36.5586 141.65 36.1359C142.546 35.7133 143.495 35.502 144.497 35.502C145.288 35.502 146.079 35.6076 146.818 35.8718C147.556 36.1359 148.294 36.4529 148.98 36.9284V38.8302H149.138Z" fill="#5B9BD5"/>
<path d="M158.473 48.9737C158.473 49.185 158.526 49.3436 158.631 49.5549C158.737 49.7134 158.895 49.819 159.159 49.819C159.317 49.819 159.422 49.819 159.528 49.7662C159.633 49.7133 159.739 49.7134 159.844 49.6605V50.7699C159.58 50.8756 159.317 50.9285 159.106 50.9285C158.895 50.9285 158.737 50.9813 158.631 50.9813C158.262 50.9813 157.998 50.9284 157.787 50.8228C157.576 50.7171 157.418 50.6115 157.313 50.453C157.207 50.2945 157.155 50.0832 157.102 49.8719C157.049 49.6605 157.049 49.3436 157.049 49.0266C156.944 49.1851 156.838 49.3964 156.68 49.6077C156.522 49.819 156.311 50.0831 156.047 50.2945C155.783 50.5058 155.467 50.7172 155.098 50.8756C154.729 51.0341 154.254 51.0869 153.779 51.0869C153.305 51.0869 152.83 51.0341 152.408 50.8756C151.986 50.7172 151.617 50.5058 151.301 50.2416C150.984 49.9775 150.721 49.6605 150.51 49.2907C150.299 48.9209 150.246 48.4983 150.246 48.0228C150.246 47.3888 150.404 46.9134 150.721 46.4907C151.037 46.0681 151.459 45.7511 151.986 45.4869C152.514 45.2228 153.147 45.0115 153.885 44.9058C154.623 44.7473 155.362 44.6417 156.205 44.536L157.155 44.4303C157.155 44.3247 157.155 44.1134 157.102 43.7964C157.049 43.4794 156.944 43.1624 156.785 42.8454C156.627 42.5284 156.363 42.2115 155.994 41.9473C155.625 41.6832 155.151 41.5775 154.465 41.5775C154.096 41.5775 153.727 41.6303 153.41 41.736C153.094 41.8417 152.777 41.9473 152.514 42.1058C152.25 42.2643 151.986 42.4228 151.775 42.5813C151.564 42.7398 151.354 42.8983 151.195 43.0039V41.419C151.723 41.102 152.303 40.7851 152.883 40.6266C153.463 40.4153 154.096 40.3096 154.729 40.3096C155.414 40.3096 155.994 40.4152 156.469 40.6794C156.944 40.8907 157.365 41.2077 157.682 41.5775C157.998 41.9473 158.209 42.3699 158.367 42.8454C158.526 43.3209 158.578 43.7964 158.578 44.2719V48.9737H158.473ZM157.102 45.5397C157.049 45.5397 156.944 45.5397 156.785 45.5397C156.627 45.5397 156.522 45.5926 156.469 45.5926C155.783 45.6455 155.151 45.7511 154.57 45.8568C153.99 45.9624 153.516 46.1209 153.094 46.2794C152.672 46.4379 152.356 46.702 152.145 46.9662C151.934 47.2303 151.775 47.5473 151.775 47.97C151.775 48.1813 151.828 48.3926 151.934 48.6039C152.039 48.8152 152.145 49.0265 152.356 49.185C152.514 49.3435 152.777 49.502 153.041 49.6077C153.305 49.7134 153.621 49.7662 153.99 49.7662C154.412 49.7662 154.834 49.6605 155.256 49.502C155.625 49.2907 155.994 49.0265 156.258 48.7096C156.522 48.3926 156.785 47.97 156.944 47.5473C157.102 47.1247 157.207 46.6492 157.207 46.1737V45.5397H157.102Z" fill="#5B9BD5"/>
<path d="M163.061 55.5777H161.742V40.4683H163.008L163.061 42.3173H163.113C163.482 41.6305 163.957 41.1022 164.537 40.7324C165.065 40.3626 165.75 40.2041 166.541 40.2041C167.174 40.2041 167.754 40.3626 168.334 40.6268C168.914 40.8909 169.389 41.2607 169.758 41.7362C170.18 42.2117 170.496 42.7928 170.707 43.4267C170.918 44.0607 171.077 44.8003 171.077 45.5399C171.077 46.3324 170.918 47.072 170.655 47.7588C170.391 48.4456 170.022 49.0267 169.6 49.5022C169.178 49.9777 168.651 50.3475 168.071 50.6117C167.49 50.8758 166.858 51.0343 166.172 51.0343C165.434 51.0343 164.801 50.8758 164.326 50.6117C163.852 50.3475 163.43 50.0834 163.113 49.872V55.5777H163.061ZM163.061 48.3928C163.166 48.4984 163.324 48.6041 163.482 48.7626C163.641 48.9211 163.852 49.0796 164.115 49.238C164.379 49.3965 164.643 49.5022 164.959 49.6079C165.276 49.7136 165.645 49.7663 166.014 49.7663C166.541 49.7663 166.963 49.6607 167.385 49.4494C167.807 49.2381 168.176 48.9211 168.492 48.5513C168.809 48.1815 169.02 47.706 169.231 47.1777C169.389 46.6494 169.494 46.0683 169.494 45.4871C169.494 44.906 169.442 44.3777 169.283 43.9022C169.125 43.4267 168.914 43.0041 168.598 42.6343C168.334 42.2645 167.965 42.0003 167.543 41.789C167.121 41.5777 166.699 41.472 166.225 41.472C165.697 41.472 165.275 41.5777 164.854 41.8418C164.432 42.0531 164.115 42.3702 163.852 42.74C163.588 43.1098 163.377 43.5324 163.219 43.955C163.061 44.4305 163.008 44.8531 163.008 45.2758V48.3928H163.061Z" fill="#5B9BD5"/>
<path d="M174.188 35.9248C174.504 35.9248 174.715 36.0833 174.82 36.3474C174.926 36.6116 175.031 36.8758 175.031 37.1927C175.031 37.4569 174.979 37.721 174.873 38.038C174.768 38.3022 174.557 38.4606 174.24 38.4606C174.082 38.4606 173.924 38.4078 173.818 38.355C173.713 38.2493 173.607 38.1965 173.555 38.038C173.502 37.9324 173.449 37.7739 173.449 37.6682C173.449 37.5097 173.396 37.404 173.396 37.2984C173.396 37.2455 173.396 37.1399 173.396 37.0342C173.396 36.8757 173.449 36.7701 173.502 36.6116C173.555 36.4531 173.66 36.3474 173.766 36.189C173.818 35.9776 173.977 35.9248 174.188 35.9248ZM174.873 40.4682V50.7701H173.502V40.4682H174.873Z" fill="#5B9BD5"/>
<path d="M179.62 37.4043V40.4684H182.363V41.7364H179.62V48.2873C179.62 48.8156 179.726 49.1854 179.884 49.3968C180.042 49.6081 180.411 49.7665 180.939 49.7665C181.255 49.7665 181.519 49.7137 181.73 49.6609C181.941 49.5552 182.152 49.5024 182.31 49.4496V50.7175C182.099 50.7703 181.888 50.8232 181.624 50.876C181.361 50.9289 181.044 50.9817 180.728 50.9817C179.989 50.9817 179.409 50.8232 178.935 50.4534C178.46 50.0835 178.249 49.5024 178.249 48.7099V41.7364H176.509V40.4684H178.249L178.407 37.4043H179.62Z" fill="#5B9BD5"/>
<path d="M191.222 48.9737C191.222 49.185 191.275 49.3436 191.38 49.5549C191.486 49.7134 191.644 49.819 191.908 49.819C192.066 49.819 192.171 49.819 192.277 49.7662C192.382 49.7133 192.488 49.7134 192.593 49.6605V50.7699C192.329 50.8756 192.066 50.9285 191.855 50.9285C191.644 50.9285 191.486 50.9813 191.38 50.9813C191.011 50.9813 190.747 50.9284 190.536 50.8228C190.325 50.7171 190.167 50.6115 190.062 50.453C189.956 50.2945 189.904 50.0832 189.851 49.8719C189.798 49.6605 189.798 49.3436 189.798 49.0266C189.693 49.1851 189.587 49.3964 189.429 49.6077C189.271 49.819 189.06 50.0831 188.796 50.2945C188.532 50.5058 188.216 50.7172 187.847 50.8756C187.478 51.0341 187.003 51.0869 186.528 51.0869C186.054 51.0869 185.579 51.0341 185.157 50.8756C184.735 50.7172 184.366 50.5058 184.05 50.2416C183.733 49.9775 183.47 49.6605 183.259 49.2907C183.048 48.9209 182.995 48.4983 182.995 48.0228C182.995 47.3888 183.153 46.9134 183.47 46.4907C183.786 46.0681 184.208 45.7511 184.735 45.4869C185.263 45.2228 185.896 45.0115 186.634 44.9058C187.372 44.7473 188.111 44.6417 188.954 44.536L189.904 44.4303C189.904 44.3247 189.904 44.1134 189.851 43.7964C189.798 43.4794 189.693 43.1624 189.534 42.8454C189.376 42.5284 189.113 42.2115 188.743 41.9473C188.374 41.6832 187.9 41.5775 187.214 41.5775C186.845 41.5775 186.476 41.6303 186.159 41.736C185.843 41.8417 185.526 41.9473 185.263 42.1058C184.999 42.2643 184.735 42.4228 184.524 42.5813C184.314 42.7398 184.103 42.8983 183.944 43.0039V41.419C184.472 41.102 185.052 40.7851 185.632 40.6266C186.212 40.4153 186.845 40.3096 187.478 40.3096C188.163 40.3096 188.743 40.4152 189.218 40.6794C189.693 40.8907 190.115 41.2077 190.431 41.5775C190.747 41.9473 190.958 42.3699 191.117 42.8454C191.275 43.3209 191.327 43.7964 191.327 44.2719V48.9737H191.222ZM189.798 45.5397C189.745 45.5397 189.64 45.5397 189.482 45.5397C189.324 45.5397 189.218 45.5926 189.165 45.5926C188.48 45.6455 187.847 45.7511 187.267 45.8568C186.687 45.9624 186.212 46.1209 185.79 46.2794C185.368 46.4379 185.052 46.702 184.841 46.9662C184.63 47.2303 184.472 47.5473 184.472 47.97C184.472 48.1813 184.524 48.3926 184.63 48.6039C184.735 48.8152 184.841 49.0265 185.052 49.185C185.21 49.3435 185.474 49.502 185.737 49.6077C186.001 49.7134 186.318 49.7662 186.687 49.7662C187.109 49.7662 187.53 49.6605 187.952 49.502C188.322 49.2907 188.691 49.0265 188.954 48.7096C189.218 48.3926 189.482 47.97 189.64 47.5473C189.798 47.1247 189.904 46.6492 189.904 46.1737V45.5397H189.798Z" fill="#5B9BD5"/>
<path d="M195.546 35.6602V50.7696H194.175V35.6602H195.546Z" fill="#5B9BD5"/>
<path d="M205.039 35.6602H206.832L211.842 44.6941L216.905 35.6602H218.698V50.7696H217.327V41.5243C217.327 41.1017 217.327 40.5205 217.379 39.7809C217.432 39.0413 217.432 38.1432 217.538 37.0866H217.379C217.221 37.4036 217.063 37.7205 216.905 38.0903C216.747 38.4601 216.536 38.83 216.377 39.1469C216.219 39.4639 216.061 39.7809 215.955 39.9922C215.85 40.2036 215.745 40.3621 215.692 40.5205C215.639 40.679 215.534 40.7847 215.481 40.8904C215.428 40.996 215.375 41.1017 215.27 41.2601L211.895 47.4413L208.889 42.0526C208.467 41.2601 208.045 40.4677 207.623 39.6752C207.201 38.8828 206.832 38.0903 206.463 37.2451H206.305C206.305 37.8262 206.357 38.4073 206.357 38.9885C206.357 39.5696 206.41 40.0451 206.41 40.5734C206.41 41.0488 206.463 41.5243 206.463 41.8941C206.463 42.3168 206.463 42.6338 206.463 42.9507V50.9281H205.092V35.6602H205.039Z" fill="#5B9BD5"/>
<path d="M228.981 48.9737C228.981 49.185 229.034 49.3436 229.139 49.5549C229.244 49.7134 229.403 49.819 229.666 49.819C229.825 49.819 229.93 49.819 230.035 49.7662C230.141 49.7133 230.246 49.7134 230.352 49.6605V50.7699C230.088 50.8756 229.825 50.9285 229.614 50.9285C229.403 50.9285 229.244 50.9813 229.139 50.9813C228.77 50.9813 228.506 50.9284 228.295 50.8228C228.084 50.7171 227.926 50.6115 227.821 50.453C227.715 50.2945 227.662 50.0832 227.61 49.8719C227.557 49.6605 227.557 49.3436 227.557 49.0266C227.451 49.1851 227.346 49.3964 227.188 49.6077C227.03 49.819 226.819 50.0831 226.555 50.2945C226.291 50.5058 225.975 50.7172 225.606 50.8756C225.237 51.0341 224.762 51.0869 224.287 51.0869C223.813 51.0869 223.338 51.0341 222.916 50.8756C222.494 50.7172 222.125 50.5058 221.809 50.2416C221.492 49.9775 221.229 49.6605 221.018 49.2907C220.807 48.9209 220.754 48.4983 220.754 48.0228C220.754 47.3888 220.912 46.9134 221.229 46.4907C221.545 46.0681 221.967 45.7511 222.494 45.4869C223.022 45.2228 223.654 45.0115 224.393 44.9058C225.131 44.7473 225.869 44.6417 226.713 44.536L227.662 44.4303C227.662 44.3247 227.662 44.1134 227.61 43.7964C227.557 43.4794 227.451 43.1624 227.293 42.8454C227.135 42.5284 226.871 42.2115 226.502 41.9473C226.133 41.6832 225.658 41.5775 224.973 41.5775C224.604 41.5775 224.235 41.6303 223.918 41.736C223.602 41.8417 223.285 41.9473 223.022 42.1058C222.758 42.2643 222.494 42.4228 222.283 42.5813C222.072 42.7398 221.861 42.8983 221.703 43.0039V41.419C222.231 41.102 222.811 40.7851 223.391 40.6266C223.971 40.4153 224.604 40.3096 225.236 40.3096C225.922 40.3096 226.502 40.4152 226.977 40.6794C227.451 40.8907 227.873 41.2077 228.19 41.5775C228.506 41.9473 228.717 42.3699 228.875 42.8454C229.034 43.3209 229.086 43.7964 229.086 44.2719V48.9737H228.981ZM227.557 45.5397C227.504 45.5397 227.399 45.5397 227.241 45.5397C227.082 45.5397 226.977 45.5926 226.924 45.5926C226.239 45.6455 225.606 45.7511 225.026 45.8568C224.445 45.9624 223.971 46.1209 223.549 46.2794C223.127 46.4379 222.811 46.702 222.6 46.9662C222.389 47.2303 222.231 47.5473 222.231 47.97C222.231 48.1813 222.283 48.3926 222.389 48.6039C222.494 48.8152 222.6 49.0265 222.811 49.185C222.969 49.3435 223.233 49.502 223.496 49.6077C223.76 49.7134 224.076 49.7662 224.445 49.7662C224.867 49.7662 225.289 49.6605 225.711 49.502C226.08 49.2907 226.449 49.0265 226.713 48.7096C226.977 48.3926 227.24 47.97 227.399 47.5473C227.557 47.1247 227.662 46.6492 227.662 46.1737V45.5397H227.557Z" fill="#5B9BD5"/>
<path d="M239.95 50.77H238.579V43.9549C238.579 43.2153 238.368 42.6342 237.946 42.1587C237.525 41.6833 236.997 41.4719 236.259 41.4719C235.732 41.4719 235.31 41.5776 234.888 41.8417C234.466 42.053 234.149 42.3701 233.886 42.7399C233.622 43.1097 233.411 43.5323 233.253 44.0078C233.095 44.4833 233.042 44.9587 233.042 45.487V50.77H231.724V40.4681H232.937L233.042 42.4229H233.095C233.2 42.2644 233.306 42.053 233.464 41.8417C233.622 41.5776 233.833 41.3663 234.097 41.1021C234.36 40.8908 234.677 40.6795 235.046 40.521C235.415 40.3625 235.89 40.2568 236.417 40.2568C237.525 40.2568 238.368 40.5738 239.001 41.2606C239.634 41.8946 239.95 42.7927 239.95 43.9549V50.77Z" fill="#5B9BD5"/>
<path d="M249.97 48.9737C249.97 49.185 250.023 49.3436 250.128 49.5549C250.234 49.7134 250.392 49.819 250.656 49.819C250.814 49.819 250.919 49.819 251.025 49.7662C251.13 49.7133 251.236 49.7134 251.341 49.6605V50.7699C251.077 50.8756 250.814 50.9285 250.603 50.9285C250.392 50.9285 250.234 50.9813 250.128 50.9813C249.759 50.9813 249.495 50.9284 249.284 50.8228C249.073 50.7171 248.915 50.6115 248.81 50.453C248.704 50.2945 248.652 50.0832 248.599 49.8719C248.546 49.6605 248.546 49.3436 248.546 49.0266C248.441 49.1851 248.335 49.3964 248.177 49.6077C248.019 49.819 247.808 50.0831 247.544 50.2945C247.28 50.5058 246.964 50.7172 246.595 50.8756C246.226 51.0341 245.751 51.0869 245.276 51.0869C244.802 51.0869 244.327 51.0341 243.905 50.8756C243.483 50.7172 243.114 50.5058 242.798 50.2416C242.481 49.9775 242.218 49.6605 242.007 49.2907C241.796 48.9209 241.743 48.4983 241.743 48.0228C241.743 47.3888 241.901 46.9134 242.218 46.4907C242.534 46.0681 242.956 45.7511 243.483 45.4869C244.011 45.2228 244.644 45.0115 245.382 44.9058C246.12 44.7473 246.859 44.6417 247.702 44.536L248.652 44.4303C248.652 44.3247 248.652 44.1134 248.599 43.7964C248.546 43.4794 248.441 43.1624 248.282 42.8454C248.124 42.5284 247.861 42.2115 247.491 41.9473C247.122 41.6832 246.648 41.5775 245.962 41.5775C245.593 41.5775 245.224 41.6303 244.907 41.736C244.591 41.8417 244.274 41.9473 244.011 42.1058C243.747 42.2643 243.483 42.4228 243.273 42.5813C243.062 42.7398 242.851 42.8983 242.692 43.0039V41.419C243.22 41.102 243.8 40.7851 244.38 40.6266C244.96 40.4153 245.593 40.3096 246.226 40.3096C246.911 40.3096 247.491 40.4152 247.966 40.6794C248.441 40.8907 248.863 41.2077 249.179 41.5775C249.495 41.9473 249.706 42.3699 249.865 42.8454C250.023 43.3209 250.075 43.7964 250.075 44.2719V48.9737H249.97ZM248.599 45.5397C248.546 45.5397 248.441 45.5397 248.282 45.5397C248.124 45.5397 248.019 45.5926 247.966 45.5926C247.28 45.6455 246.648 45.7511 246.068 45.8568C245.487 45.9624 245.013 46.1209 244.591 46.2794C244.169 46.4379 243.853 46.702 243.642 46.9662C243.431 47.2303 243.273 47.5473 243.273 47.97C243.273 48.1813 243.325 48.3926 243.431 48.6039C243.536 48.8152 243.642 49.0265 243.853 49.185C244.011 49.3435 244.274 49.502 244.538 49.6077C244.802 49.7134 245.118 49.7662 245.487 49.7662C245.909 49.7662 246.331 49.6605 246.753 49.502C247.122 49.2907 247.491 49.0265 247.755 48.7096C248.019 48.3926 248.282 47.97 248.441 47.5473C248.599 47.1247 248.704 46.6492 248.704 46.1737V45.5397H248.599Z" fill="#5B9BD5"/>
<path d="M260.623 40.4683H261.678V50.4004C261.678 51.1928 261.573 51.8796 261.414 52.4607C261.256 53.0419 260.993 53.5173 260.729 53.9399C260.465 54.3626 260.149 54.6796 259.78 54.9437C259.41 55.2079 259.094 55.3664 258.725 55.5249C258.356 55.6833 258.039 55.7362 257.723 55.789C257.406 55.8418 257.143 55.8418 256.879 55.8418C256.721 55.8418 256.563 55.8418 256.352 55.789C256.141 55.789 255.824 55.7362 255.508 55.6306C255.192 55.5249 254.822 55.4192 254.4 55.2079C253.979 54.9966 253.557 54.7324 253.082 54.3626V52.672C253.557 53.0947 253.979 53.4645 254.4 53.7286C254.822 53.9928 255.192 54.1513 255.508 54.2569C255.824 54.3626 256.088 54.4682 256.352 54.4682C256.563 54.4682 256.774 54.5211 256.879 54.5211C257.301 54.5211 257.776 54.4154 258.145 54.2569C258.567 54.0984 258.936 53.8343 259.252 53.5173C259.569 53.2004 259.832 52.7777 259.991 52.2494C260.149 51.7211 260.254 51.1399 260.254 50.506V48.6569H260.201C259.938 49.1324 259.674 49.5022 259.358 49.7663C259.041 50.0305 258.725 50.2419 258.408 50.4004C258.092 50.5588 257.828 50.6117 257.512 50.6645C257.196 50.7173 256.985 50.7173 256.826 50.7173C256.193 50.7173 255.561 50.5588 255.033 50.2947C254.506 50.0305 254.031 49.6079 253.609 49.1324C253.188 48.6569 252.924 48.1287 252.66 47.4947C252.449 46.8607 252.344 46.2268 252.344 45.5928C252.344 44.9589 252.449 44.3248 252.66 43.6909C252.871 43.0569 253.188 42.4758 253.557 41.9475C253.926 41.4192 254.453 40.9966 255.033 40.6796C255.613 40.3626 256.299 40.2041 257.09 40.2041C257.512 40.2041 257.881 40.257 258.197 40.3626C258.514 40.4683 258.83 40.5739 259.094 40.7324C259.358 40.8909 259.569 41.0494 259.78 41.2079C259.938 41.3664 260.096 41.5249 260.254 41.6306L260.623 40.4683ZM260.254 42.9513C259.832 42.5287 259.358 42.1589 258.883 41.8947C258.408 41.6306 257.881 41.472 257.301 41.472C256.879 41.472 256.404 41.5777 256.035 41.7362C255.613 41.8947 255.244 42.1588 254.928 42.5286C254.611 42.8456 254.348 43.2683 254.137 43.7966C253.926 44.3249 253.873 44.906 253.873 45.5399C253.873 46.1211 253.926 46.6494 254.084 47.1248C254.242 47.6003 254.453 48.023 254.717 48.3928C254.981 48.7626 255.35 49.0267 255.719 49.1852C256.088 49.3966 256.51 49.4494 256.985 49.4494C257.459 49.4494 257.881 49.3437 258.25 49.1852C258.619 48.9739 258.988 48.7098 259.305 48.3928C259.621 48.0758 259.832 47.6532 259.991 47.2305C260.149 46.7551 260.254 46.2796 260.254 45.7513V42.9513Z" fill="#5B9BD5"/>
<path d="M265.053 45.2229C265.105 46.3323 265.316 47.1776 265.633 47.8115C266.002 48.4455 266.371 48.8681 266.793 49.1851C267.215 49.5021 267.637 49.6606 268.006 49.7134C268.375 49.7663 268.639 49.8191 268.797 49.8191C269.272 49.8191 269.746 49.7663 270.115 49.6078C270.537 49.4493 270.907 49.238 271.223 49.0267C271.539 48.8153 271.856 48.5512 272.119 48.3398C272.383 48.1285 272.594 47.9172 272.7 47.7587V49.4493C272.489 49.6078 272.278 49.7663 272.014 49.9776C271.75 50.1889 271.434 50.3474 271.117 50.5059C270.801 50.6644 270.379 50.8229 270.01 50.9285C269.588 51.0342 269.166 51.087 268.692 51.087C268.006 51.087 267.373 50.9814 266.793 50.7172C266.16 50.4531 265.633 50.0832 265.158 49.6606C264.684 49.1851 264.314 48.604 263.998 47.9701C263.682 47.3361 263.576 46.5436 263.576 45.7512C263.576 44.9587 263.682 44.2719 263.945 43.5851C264.209 42.9512 264.578 42.37 265 41.8417C265.422 41.3134 266.002 40.9965 266.582 40.6795C267.162 40.4153 267.848 40.2568 268.533 40.2568C268.955 40.2568 269.377 40.3097 269.746 40.4153C270.115 40.521 270.432 40.6795 270.696 40.838C270.959 40.9965 271.223 41.2078 271.434 41.4719C271.645 41.6832 271.856 41.9474 272.014 42.1587C272.383 42.7399 272.647 43.321 272.7 43.7965C272.805 44.3248 272.805 44.8002 272.858 45.2229H265.053ZM271.276 44.0606C271.17 43.4267 270.959 42.8983 270.696 42.5285C270.432 42.1587 270.115 41.8946 269.799 41.7361C269.483 41.5776 269.219 41.4719 268.955 41.4719C268.692 41.4191 268.533 41.4191 268.481 41.4191C267.637 41.4191 267.004 41.6833 266.477 42.1587C265.949 42.687 265.58 43.2682 265.316 44.0078H271.276V44.0606Z" fill="#5B9BD5"/>
<path d="M288.837 50.77H287.466V43.8493C287.466 43.0568 287.255 42.4757 286.886 42.053C286.517 41.6832 286.042 41.4719 285.568 41.4719C285.146 41.4719 284.777 41.5776 284.408 41.7889C284.038 42.0002 283.722 42.2644 283.458 42.6342C283.195 43.004 282.984 43.4266 282.826 43.9549C282.667 44.4304 282.615 45.0116 282.615 45.5927V50.77H281.243V43.8493C281.243 43.1097 281.032 42.5285 280.716 42.1059C280.347 41.6832 279.925 41.4719 279.398 41.4719C279.029 41.4719 278.659 41.5776 278.29 41.7889C277.921 42.0002 277.605 42.2644 277.341 42.6342C277.077 43.004 276.866 43.4266 276.708 43.9549C276.55 44.4832 276.444 45.0644 276.444 45.6983V50.8228H275.073V40.521H276.392L276.444 42.1587H276.497C276.603 42.0003 276.708 41.8418 276.866 41.6304C277.024 41.4191 277.183 41.2078 277.446 40.9964C277.71 40.7851 277.974 40.6266 278.343 40.521C278.712 40.3625 279.081 40.3097 279.609 40.3097C280.189 40.3097 280.611 40.4153 280.98 40.5738C281.349 40.7323 281.613 40.9436 281.876 41.2078C282.14 41.4719 282.245 41.6833 282.351 41.8946C282.456 42.1059 282.562 42.3172 282.562 42.4229C282.615 42.2644 282.72 42.053 282.878 41.7889C283.036 41.5247 283.247 41.3135 283.458 41.1021C283.669 40.8908 283.986 40.6795 284.408 40.521C284.777 40.3625 285.251 40.2568 285.779 40.2568C286.57 40.2568 287.203 40.4153 287.625 40.7323C288.046 41.0493 288.363 41.4191 288.521 41.8417C288.732 42.2644 288.837 42.687 288.837 43.1625C288.89 43.5851 288.89 43.9549 288.89 44.2191V50.77H288.837Z" fill="#5B9BD5"/>
<path d="M292.528 45.2229C292.581 46.3323 292.792 47.1776 293.108 47.8115C293.478 48.4455 293.847 48.8681 294.269 49.1851C294.691 49.5021 295.112 49.6606 295.482 49.7134C295.851 49.7663 296.114 49.8191 296.273 49.8191C296.747 49.8191 297.222 49.7663 297.591 49.6078C298.013 49.4493 298.382 49.238 298.699 49.0267C299.015 48.8153 299.331 48.5512 299.595 48.3398C299.859 48.1285 300.07 47.9172 300.175 47.7587V49.4493C299.964 49.6078 299.753 49.7663 299.49 49.9776C299.226 50.1889 298.909 50.3474 298.593 50.5059C298.277 50.6644 297.855 50.8229 297.486 50.9285C297.064 51.0342 296.642 51.087 296.167 51.087C295.482 51.087 294.849 50.9814 294.269 50.7172C293.636 50.4531 293.108 50.0832 292.634 49.6606C292.159 49.1851 291.79 48.604 291.474 47.9701C291.157 47.3361 291.052 46.5436 291.052 45.7512C291.052 44.9587 291.157 44.2719 291.421 43.5851C291.685 42.9512 292.054 42.37 292.476 41.8417C292.898 41.3134 293.478 40.9965 294.058 40.6795C294.638 40.4153 295.323 40.2568 296.009 40.2568C296.431 40.2568 296.853 40.3097 297.222 40.4153C297.591 40.521 297.908 40.6795 298.171 40.838C298.435 40.9965 298.699 41.2078 298.91 41.4719C299.12 41.6832 299.331 41.9474 299.49 42.1587C299.859 42.7399 300.122 43.321 300.175 43.7965C300.281 44.3248 300.281 44.8002 300.333 45.2229H292.528ZM298.751 44.0606C298.646 43.4267 298.435 42.8983 298.171 42.5285C297.908 42.1587 297.591 41.8946 297.275 41.7361C296.958 41.5776 296.695 41.4719 296.431 41.4719C296.167 41.4191 296.009 41.4191 295.956 41.4191C295.112 41.4191 294.48 41.6833 293.952 42.1587C293.425 42.687 293.056 43.2682 292.792 44.0078H298.751V44.0606Z" fill="#5B9BD5"/>
<path d="M310.617 50.77H309.245V43.9549C309.245 43.2153 309.034 42.6342 308.613 42.1587C308.191 41.6833 307.663 41.4719 306.925 41.4719C306.398 41.4719 305.976 41.5776 305.554 41.8417C305.132 42.053 304.816 42.3701 304.552 42.7399C304.288 43.1097 304.077 43.5323 303.919 44.0078C303.761 44.4833 303.708 44.9587 303.708 45.487V50.77H302.39V40.4681H303.603L303.708 42.4229H303.761C303.866 42.2644 303.972 42.053 304.13 41.8417C304.288 41.5776 304.499 41.3663 304.763 41.1021C305.026 40.8908 305.343 40.6795 305.712 40.521C306.081 40.3625 306.556 40.2568 307.083 40.2568C308.191 40.2568 309.034 40.5738 309.667 41.2606C310.3 41.8946 310.617 42.7927 310.617 43.9549V50.77Z" fill="#5B9BD5"/>
<path d="M315.047 37.4043V40.4684H317.789V41.7364H315.047V48.2873C315.047 48.8156 315.152 49.1854 315.311 49.3968C315.469 49.6081 315.838 49.7665 316.365 49.7665C316.682 49.7665 316.945 49.7137 317.156 49.6609C317.367 49.5552 317.578 49.5024 317.736 49.4496V50.7175C317.526 50.7703 317.315 50.8232 317.051 50.876C316.787 50.9289 316.471 50.9817 316.154 50.9817C315.416 50.9817 314.836 50.8232 314.361 50.4534C313.887 50.0835 313.676 49.5024 313.676 48.7099V41.7364H311.936V40.4684H313.676L313.834 37.4043H315.047Z" fill="#5B9BD5"/>
<defs>
<linearGradient id="paint0_linear" x1="34.6917" y1="40.6305" x2="58.9303" y2="42.1652" gradientUnits="userSpaceOnUse">
<stop stop-color="#182978"/>
<stop offset="1" stop-color="#3C66B8"/>
</linearGradient>
<linearGradient id="paint1_linear" x1="46.7889" y1="31.0199" x2="67.0353" y2="31.0199" gradientUnits="userSpaceOnUse">
<stop stop-color="#182978"/>
<stop offset="1" stop-color="#3C66B8"/>
</linearGradient>
<linearGradient id="paint2_linear" x1="59.6483" y1="23.924" x2="73.7" y2="24.4136" gradientUnits="userSpaceOnUse">
<stop stop-color="#182978"/>
<stop offset="1" stop-color="#3C66B8"/>
</linearGradient>
<linearGradient id="paint3_linear" x1="26.1052" y1="25.812" x2="102.785" y2="25.812" gradientUnits="userSpaceOnUse">
<stop stop-color="#293C82"/>
<stop offset="0.5" stop-color="#4362A7"/>
<stop offset="1" stop-color="#77CADB"/>
<stop offset="1" stop-color="#6C9BD0"/>
</linearGradient>
<linearGradient id="paint4_linear" x1="58.4419" y1="8.52724" x2="61.4897" y2="3.37866" gradientUnits="userSpaceOnUse">
<stop stop-color="#1C317F"/>
<stop offset="1" stop-color="#335BA3"/>
</linearGradient>
<linearGradient id="paint5_linear" x1="93.8675" y1="27.6417" x2="97.5419" y2="23.9738" gradientUnits="userSpaceOnUse">
<stop stop-color="#4472C4"/>
<stop offset="1" stop-color="#5B9BD5"/>
</linearGradient>
</defs>
</svg>
