<svg width="24" height="24" viewBox="0 0 24 24" fill="none" xmlns="http://www.w3.org/2000/svg">
<path d="M19.633 7.99655C19.646 8.17156 19.646 8.34556 19.646 8.51956C19.646 13.8446 15.593 19.9806 8.186 19.9806C5.904 19.9806 3.784 19.3196 2 18.1716C2.324 18.2086 2.636 18.2216 2.973 18.2216C4.856 18.2216 6.589 17.5856 7.974 16.5006C6.203 16.4636 4.719 15.3036 4.207 13.7076C4.456 13.7446 4.706 13.7696 4.968 13.7696C5.329 13.7696 5.692 13.7196 6.029 13.6326C4.182 13.2586 2.799 11.6376 2.799 9.67955V9.62955C3.336 9.92855 3.959 10.1156 4.619 10.1406C3.534 9.41855 2.823 8.18355 2.823 6.78655C2.823 6.03855 3.022 5.35255 3.371 4.75455C5.354 7.19755 8.335 8.79455 11.677 8.96955C11.615 8.66955 11.577 8.35855 11.577 8.04655C11.577 5.82655 13.373 4.01855 15.605 4.01855C16.765 4.01855 17.812 4.50455 18.548 5.29055C19.458 5.11555 20.33 4.77855 21.104 4.31755C20.805 5.25255 20.168 6.03855 19.333 6.53755C20.144 6.44955 20.93 6.22555 21.652 5.91355C21.104 6.71155 20.419 7.42255 19.633 7.99655Z" fill="white"/>
</svg>
